<?xml version="1.0" encoding="utf-8"?>
<!-- Generator: Adobe Illustrator 19.0.1, SVG Export Plug-In . SVG Version: 6.00 Build 0)  -->
<svg version="1.1" id="Шар_1" xmlns="http://www.w3.org/2000/svg" xmlns:xlink="http://www.w3.org/1999/xlink" x="0px" y="0px"
	 viewBox="0 0 294.8 3.8" style="enable-background:new 0 0 294.8 3.8;" xml:space="preserve">
<style type="text/css">
	.st0{fill-rule:evenodd;clip-rule:evenodd;fill:#D5B37D;}
</style>
<path class="st0" d="M0,3.8c0,0,4.6-0.1,12.7-0.2c8.1-0.1,19.6-0.3,33.4-0.3C59.9,3.2,76,3,93.3,3c17.3,0,35.7-0.1,54.1-0.1
	c18.4,0,36.8,0.1,54.1,0.1c17.3,0,33.4,0.2,47.2,0.3c13.8,0.1,25.3,0.3,33.4,0.3c8.1,0.1,12.7,0.2,12.7,0.2s-4.6,0.1-12.7,0.2
	c-8.1,0.1-19.6,0.3-33.4,0.3c-13.8,0.1-29.9,0.3-47.2,0.3c-17.3,0-35.7,0.1-54.1,0.1c-18.4,0-36.8-0.1-54.1-0.1
	C76,4.6,59.9,4.4,46.1,4.4C32.2,4.3,20.7,4.1,12.7,4C4.6,3.9,0,3.8,0,3.8z"/>
</svg>
